<svg width="17" height="16" viewBox="0 0 17 16" fill="none" xmlns="http://www.w3.org/2000/svg">
<g clip-path="url(#clip0_73_193)">
<path d="M16.0235 4.26667C16.0228 3.9663 15.9032 3.67843 15.6908 3.46606C15.4784 3.25366 15.1906 3.13403 14.8902 3.13334H10.9355C10.8525 2.47262 10.5311 1.86497 10.0318 1.42444C9.5324 0.983915 8.88942 0.740829 8.22352 0.740829C7.55763 0.740829 6.91464 0.983915 6.41528 1.42444C5.91592 1.86497 5.59456 2.47262 5.51152 3.13334H1.55686C1.25649 3.13403 0.968635 3.25366 0.756246 3.46606C0.543859 3.67843 0.424227 3.9663 0.423523 4.26667V4.87734C0.424422 5.57396 0.608339 6.25814 0.956856 6.86134V14.1333C0.95756 14.4337 1.07719 14.7216 1.28958 14.9339C1.50197 15.1463 1.78983 15.266 2.09019 15.2667H14.3569C14.6572 15.266 14.9451 15.1463 15.1575 14.9339C15.3698 14.7216 15.4895 14.4337 15.4902 14.1333V6.86134C15.8387 6.25814 16.0226 5.57396 16.0235 4.87734V4.26667ZM8.22352 1.39999C8.71347 1.40053 9.18728 1.57512 9.56043 1.8926C9.9336 2.21009 10.1818 2.64979 10.2609 3.13334H6.18619C6.2652 2.64979 6.51344 2.21009 6.88662 1.8926C7.25976 1.57512 7.73358 1.40053 8.22352 1.39999ZM1.09019 4.26667C1.09089 4.1431 1.14028 4.02481 1.22765 3.93745C1.31501 3.85009 1.4333 3.8007 1.55686 3.80001H14.8902C15.0137 3.8007 15.132 3.85009 15.2194 3.93745C15.3068 4.02481 15.3562 4.1431 15.3569 4.26667V4.87734C15.3562 5.75833 15.0059 6.60305 14.3829 7.22604C13.7599 7.849 12.9152 8.19929 12.0342 8.20001H4.41286C3.53184 8.19929 2.68712 7.849 2.06415 7.22604C1.44119 6.60305 1.0909 5.75833 1.09019 4.87734V4.26667ZM7.49019 8.86668H8.95686V10.1333C8.95686 10.3278 8.8796 10.5144 8.74206 10.6519C8.60454 10.7894 8.418 10.8667 8.22352 10.8667C8.02904 10.8667 7.84251 10.7894 7.70499 10.6519C7.56744 10.5144 7.49019 10.3278 7.49019 10.1333V8.86668ZM14.3569 14.6H2.09019C1.96664 14.5993 1.84835 14.5499 1.76098 14.4625C1.67361 14.3752 1.62422 14.2569 1.62352 14.1333V7.73334C2.36675 8.46654 3.36883 8.87753 4.41286 8.87734H6.81286V10.1333C6.81286 10.5046 6.96035 10.8607 7.22291 11.1233C7.48547 11.3858 7.84155 11.5333 8.21286 11.5333C8.58416 11.5333 8.94024 11.3858 9.2028 11.1233C9.46536 10.8607 9.61286 10.5046 9.61286 10.1333V8.86668H12.0129C13.0627 8.87534 14.0733 8.46785 14.8235 7.73334V14.1333C14.8228 14.2569 14.7734 14.3752 14.6861 14.4625C14.5987 14.5499 14.4804 14.5993 14.3569 14.6Z" fill="#2E2E2E"/>
</g>
<defs>
<clipPath id="clip0_73_193">
<rect width="16" height="14.9333" fill="white" transform="translate(0.176453 0.53334)"/>
</clipPath>
</defs>
</svg>
