<svg width="10" height="12" viewBox="0 0 10 12" fill="none" xmlns="http://www.w3.org/2000/svg">
<g clip-path="url(#clip0_609_3776)">
<path d="M4.50501 9.42166H3.22026V0.214125C3.22026 0.151711 3.20022 0.100312 3.16002 0.0602109C3.11987 0.0201328 3.06862 0 3.00611 0H1.72136C1.65892 0 1.6075 0.0200391 1.56744 0.0601875C1.52734 0.100383 1.50721 0.151711 1.50721 0.214102V9.42164H0.222436C0.124327 9.42164 0.0573896 9.46622 0.0216708 9.55542C-0.0140479 9.64029 0.00165522 9.71831 0.0685224 9.7897L2.20977 11.9311C2.2589 11.9711 2.31016 11.9911 2.36369 11.9911C2.42169 11.9911 2.47302 11.9711 2.5176 11.9311L4.65219 9.79643C4.69691 9.74302 4.71916 9.6893 4.71916 9.63602C4.71916 9.5733 4.69912 9.52214 4.65892 9.48171C4.61877 9.44173 4.56751 9.42166 4.50501 9.42166Z" fill="black"/>
<path d="M9.18897 7.48435C8.82313 7.06281 8.36596 6.85208 7.8172 6.85208C7.33089 6.85208 6.9272 7.01481 6.60597 7.34054C6.28492 7.66618 6.12433 8.06321 6.12433 8.53161C6.12433 8.98222 6.2736 9.36688 6.57269 9.68596C6.8717 10.0048 7.25734 10.1643 7.73024 10.1643C7.92677 10.1643 8.11525 10.1331 8.29586 10.0706C8.47633 10.0082 8.61372 9.92558 8.70742 9.82309H8.72081C8.64942 10.2111 8.50103 10.5356 8.27582 10.7966C8.05061 11.0576 7.75047 11.188 7.37575 11.188C7.20634 11.188 7.03905 11.1591 6.87414 11.1011C6.80275 11.0833 6.73363 11.0587 6.66672 11.0274L6.40572 11.7837C6.48602 11.8149 6.5796 11.8483 6.68685 11.8843C6.89193 11.9555 7.13296 11.9913 7.4095 11.9913C7.71735 11.9913 8.0017 11.9367 8.26265 11.8274C8.52367 11.7181 8.74342 11.5722 8.92171 11.3891C9.10026 11.206 9.25192 10.9934 9.37682 10.7501C9.5017 10.5069 9.59313 10.2526 9.65111 9.9875C9.70919 9.722 9.7383 9.4509 9.7383 9.17436C9.73795 8.46929 9.55485 7.90609 9.18897 7.48435ZM8.5668 9.24114C8.41073 9.3616 8.22102 9.42184 7.99804 9.42184C7.69478 9.42184 7.46144 9.33707 7.29855 9.16757C7.13573 8.99811 7.05424 8.78603 7.05424 8.53185C7.05424 8.27776 7.12338 8.06802 7.26166 7.90295C7.39991 7.73781 7.58505 7.65519 7.81708 7.65519C8.08026 7.65519 8.31004 7.77334 8.50647 8.0098C8.70281 8.24624 8.80082 8.50482 8.80082 8.78603C8.80082 8.96891 8.72303 9.12074 8.5668 9.24114Z" fill="black"/>
<path d="M7.28857 1.4254C7.36887 1.34508 7.42686 1.27601 7.46248 1.21795L7.50924 1.13761H7.52262V1.24472C7.52262 1.26694 7.52133 1.30491 7.51925 1.35846C7.51716 1.41199 7.51587 1.45439 7.51587 1.48559V4.37632H6.39858V5.13916H9.53696V4.37632H8.43284V0H7.60976L6.32501 1.23809L6.87394 1.81357L7.28857 1.4254Z" fill="black"/>
</g>
<defs>
<clipPath id="clip0_609_3776">
<rect width="9.75" height="12" fill="white"/>
</clipPath>
</defs>
</svg>
