<svg width="16" height="16" viewBox="0 0 16 16" fill="none" xmlns="http://www.w3.org/2000/svg">
<g clip-path="url(#clip0_402_5967)">
<path d="M11.395 15.8049C11.2994 15.8049 11.2038 15.801 11.1078 15.7939C9.52938 15.6735 8.01816 15.1049 6.75189 14.1549C4.81855 12.7048 3.1012 10.9872 1.6514 9.05366C0.701317 7.78743 0.132669 6.27621 0.01238 4.69775C-0.02922 4.16179 0.0457965 3.62322 0.232271 3.11902C0.418745 2.61486 0.712247 2.15706 1.09258 1.77717L2.07053 0.798049C2.45675 0.412496 2.98018 0.195953 3.52594 0.195953C4.0717 0.195953 4.59513 0.412496 4.98136 0.798049L5.86565 1.68273C6.05679 1.87385 6.2084 2.10075 6.31185 2.35047C6.41531 2.60019 6.46854 2.86786 6.46854 3.13814C6.46854 3.40843 6.41531 3.67609 6.31185 3.92581C6.2084 4.17553 6.05679 4.40245 5.86565 4.59356L5.35833 5.10087C5.14998 5.31008 5.0203 5.58486 4.99123 5.87867C4.96216 6.17252 5.03544 6.46735 5.19872 6.71336C6.22553 8.25643 7.5492 9.5797 9.09258 10.606C9.33866 10.7691 9.63345 10.8422 9.92723 10.8131C10.221 10.784 10.4957 10.6545 10.7051 10.4464L11.2124 9.93912C11.4035 9.74798 11.6304 9.59637 11.8801 9.49291C12.1298 9.38946 12.3975 9.33623 12.6678 9.33623C12.9381 9.33623 13.2057 9.38946 13.4555 9.49291C13.7052 9.59637 13.9321 9.74798 14.1232 9.93912L15.0079 10.8234C15.199 11.0146 15.3506 11.2414 15.4541 11.4912C15.5576 11.7409 15.6108 12.0085 15.6108 12.2788C15.6108 12.5491 15.5576 12.8168 15.4541 13.0665C15.3506 13.3162 15.199 13.5431 15.0079 13.7342L14.0276 14.7122C13.6821 15.0584 13.2718 15.3331 12.8201 15.5206C12.3684 15.7081 11.8841 15.8047 11.395 15.8049ZM3.52575 0.97561C3.35798 0.975395 3.19177 1.00831 3.03677 1.07246C2.88173 1.13662 2.74089 1.23075 2.62233 1.34946L1.64321 2.32898C1.34255 2.62934 1.11051 2.99129 0.963045 3.38989C0.81558 3.78848 0.756193 4.21432 0.788965 4.63805C0.898554 6.06848 1.41424 7.43793 2.2754 8.58536C3.68095 10.4592 5.34557 12.1238 7.2194 13.5294C8.36676 14.3907 9.73624 14.9064 11.1667 15.0158C11.5904 15.048 12.016 14.9884 12.4146 14.8409C12.8131 14.6935 13.1751 14.4618 13.4758 14.1616L14.4549 13.1824C14.6945 12.9427 14.8291 12.6178 14.8291 12.2788C14.8291 11.9399 14.6945 11.6149 14.4549 11.3752L13.5702 10.4909C13.327 10.2583 13.0034 10.1285 12.6668 10.1285C12.3303 10.1285 12.0067 10.2583 11.7634 10.4909L11.2561 10.9982C10.9191 11.3337 10.4766 11.5425 10.0034 11.5894C9.53016 11.6363 9.05527 11.5183 8.65901 11.2554C7.03014 10.1719 5.63326 8.77502 4.54975 7.14614C4.2868 6.74989 4.16879 6.275 4.21566 5.80179C4.26253 5.32858 4.47139 4.88605 4.80692 4.54907L5.31423 4.04175C5.55384 3.80214 5.68844 3.47719 5.68844 3.13834C5.68844 2.79949 5.55384 2.47453 5.31423 2.23493L4.42955 1.34985C4.31096 1.23106 4.17004 1.13685 4.01496 1.07263C3.85987 1.00841 3.69363 0.975434 3.52575 0.97561Z" fill="black"/>
</g>
<defs>
<clipPath id="clip0_402_5967">
<rect width="16" height="15.6098" fill="white" transform="translate(0 0.195129)"/>
</clipPath>
</defs>
</svg>
