<svg width="11" height="12" viewBox="0 0 11 12" fill="none" xmlns="http://www.w3.org/2000/svg">
<g clip-path="url(#clip0_609_3764)">
<path d="M4.50543 9.42166H3.22064V0.214125C3.22064 0.151711 3.20062 0.100312 3.16045 0.0602109C3.1203 0.0201328 3.06904 0 3.00654 0H1.72174C1.65932 0 1.60793 0.0200391 1.56782 0.0601875C1.52777 0.100383 1.50764 0.151711 1.50764 0.214102V9.42164H0.222817C0.124754 9.42164 0.0578403 9.46622 0.0221215 9.55542C-0.0136206 9.64029 0.00205904 9.71831 0.0689262 9.7897L2.2102 11.9311C2.25932 11.9711 2.31054 11.9911 2.36411 11.9911C2.4221 11.9911 2.47343 11.9711 2.51803 11.9311L4.65262 9.79643C4.69729 9.74302 4.71956 9.6893 4.71956 9.63602C4.71956 9.5733 4.69954 9.52214 4.65937 9.48171C4.6192 9.44173 4.56797 9.42166 4.50543 9.42166Z" fill="black"/>
<path d="M9.50416 11.2285H7.8446C7.75092 11.2285 7.68401 11.233 7.644 11.2418L7.55022 11.2552V11.2418L7.62386 11.1682C7.69061 11.088 7.73761 11.03 7.7644 10.9945L10.2334 7.44769V6.85223H6.43931V8.38451H7.24235V7.61501H8.79476C8.87496 7.61501 8.94201 7.60826 8.99526 7.59497C9.00867 7.59497 9.02543 7.59384 9.04549 7.59157C9.06548 7.58958 9.08006 7.58819 9.0889 7.58819V7.60823L9.01526 7.66856C8.97532 7.70866 8.92823 7.76871 8.87475 7.84917L6.4057 11.3891V11.9913H10.3135V10.4322H9.504V11.2285H9.50416Z" fill="black"/>
<path d="M10.4408 4.42988L8.90173 0H7.81774L6.27874 4.42988H5.81049V5.13919H7.73079V4.42988H7.22902L7.54352 3.46631H9.16964L9.48406 4.42988H8.98242V5.13919H10.9096V4.42988H10.4408ZM7.76433 2.73016L8.25279 1.27139C8.2706 1.21784 8.28745 1.15313 8.30302 1.07733C8.31849 1.00148 8.32636 0.961336 8.32636 0.956883L8.3464 0.823102H8.37319C8.37319 0.840938 8.37767 0.885539 8.38636 0.956883L8.46682 1.27137L8.94856 2.73014H7.76433V2.73016Z" fill="black"/>
</g>
<defs>
<clipPath id="clip0_609_3764">
<rect width="10.9219" height="12" fill="white"/>
</clipPath>
</defs>
</svg>
