<svg width="16" height="16" viewBox="0 0 16 16" fill="none" xmlns="http://www.w3.org/2000/svg">
<g clip-path="url(#clip0_73_172)">
<path d="M7.63655 0.301376V1.60676H5.35669V3.09541H4.1436V7.72894H3.06548V6.26305H2.33821V7.72894H0.6521V15.6991H15.3481V7.72894H13.6137V6.26305H12.8865V7.72894H11.7643V3.09541H10.4589V1.60676H8.36368V0.301376H7.63655ZM6.08396 2.33403H9.73168V3.09541H6.08396V2.33403ZM4.87087 3.82407H11.0357V14.9702H9.31975V12.2686H6.58819V14.9702H4.87225V7.72879H4.8708L4.87087 3.82407ZM1.37937 8.45759H4.1436V14.9704H1.37937V8.45759ZM11.7641 8.45759H14.6206V14.9704H11.7641V8.45759ZM7.3167 12.9974H8.59088V14.9704H7.3167V12.9974Z" fill="#2E2E2E"/>
<path d="M6.14685 4.84177V7.05865H9.66903V4.84177H6.14685ZM6.87531 5.5703H8.94057V6.33152H6.87531V5.5703Z" fill="#2E2E2E"/>
<path d="M6.14685 8.24307V10.46H9.66903V8.24307H6.14685ZM6.87531 8.97021H8.94057V9.73143H6.87531V8.97021Z" fill="#2E2E2E"/>
<path d="M2.04871 11.35V12.0771H3.4742V11.35H2.04871Z" fill="#2E2E2E"/>
<path d="M2.04871 9.76859V10.4971H3.4742V9.76859H2.04871Z" fill="#2E2E2E"/>
<path d="M2.04871 12.93V13.6571H3.4742V12.93H2.04871Z" fill="#2E2E2E"/>
<path d="M12.4788 11.35V12.0771H13.9043V11.35H12.4788Z" fill="#2E2E2E"/>
<path d="M12.4788 9.76859V10.4971H13.9043V9.76859H12.4788Z" fill="#2E2E2E"/>
<path d="M12.4788 12.93V13.6571H13.9043V12.93H12.4788Z" fill="#2E2E2E"/>
</g>
<defs>
<clipPath id="clip0_73_172">
<rect width="16" height="16" fill="white"/>
</clipPath>
</defs>
</svg>
