<svg width="11" height="12" viewBox="0 0 11 12" fill="none" xmlns="http://www.w3.org/2000/svg">
<g clip-path="url(#clip0_609_3770)">
<path d="M4.50543 9.42166H3.22064V0.214125C3.22064 0.151711 3.20062 0.100312 3.16045 0.0602109C3.1203 0.0201328 3.06904 0 3.00654 0H1.72174C1.65932 0 1.60793 0.0200391 1.56782 0.0601875C1.52777 0.100383 1.50764 0.151711 1.50764 0.214102V9.42164H0.222817C0.124754 9.42164 0.0578403 9.46622 0.0221215 9.55542C-0.0136206 9.64029 0.00205904 9.71831 0.0689262 9.7897L2.2102 11.9311C2.25932 11.9711 2.31054 11.9911 2.36411 11.9911C2.4221 11.9911 2.47343 11.9711 2.51803 11.9311L4.65262 9.79643C4.69729 9.74302 4.71956 9.6893 4.71956 9.63602C4.71956 9.5733 4.69954 9.52214 4.65937 9.48171C4.6192 9.44173 4.56797 9.42166 4.50543 9.42166Z" fill="black"/>
<path d="M10.4408 11.2819L8.9018 6.85199H7.81782L6.27889 11.282H5.81061V11.9913H7.73094V11.2819H7.22909L7.54358 10.3184H9.16969L9.48411 11.2819H8.9824V11.9913H10.9096V11.2819H10.4408V11.2819ZM7.76431 9.58234L8.25277 8.12354C8.27058 8.07004 8.28744 8.0053 8.303 7.92953C8.31847 7.85373 8.32634 7.81356 8.32634 7.80913L8.34638 7.67518H8.37317C8.37317 7.69316 8.37765 7.73774 8.38634 7.80913L8.4668 8.12354L8.94854 9.58234H7.76431Z" fill="black"/>
<path d="M10.3138 3.57996H9.50434V4.37625H7.84477C7.751 4.37625 7.68418 4.37852 7.64424 4.383L7.5504 4.40302V4.383L7.62404 4.31602C7.69086 4.23581 7.73778 4.17783 7.76457 4.14209L10.2336 0.595547V0H6.43955V1.53251H7.2425V0.762937H8.79481C8.87511 0.762937 8.94207 0.756188 8.99544 0.742805C9.00882 0.742805 9.02558 0.74168 9.04564 0.73943C9.06568 0.737227 9.08023 0.736055 9.08909 0.736055V0.756094L9.01548 0.816281C8.97544 0.85643 8.92852 0.916664 8.87494 0.996984L6.40594 4.53677V5.13905H10.3138V3.57996Z" fill="black"/>
</g>
<defs>
<clipPath id="clip0_609_3770">
<rect width="10.9219" height="12" fill="white"/>
</clipPath>
</defs>
</svg>
