<svg width="14" height="16" viewBox="0 0 14 16" fill="none" xmlns="http://www.w3.org/2000/svg">
<g clip-path="url(#clip0_402_6025)">
<path fill-rule="evenodd" clip-rule="evenodd" d="M6.92593 11.2087V12.7461C6.92593 12.9068 7.06337 13.037 7.22222 13.037C7.38586 13.037 7.51852 12.902 7.51852 12.7461V11.2087C7.86376 11.0867 8.11111 10.7574 8.11111 10.3704C8.11111 9.87945 7.71314 9.48148 7.22222 9.48148C6.7313 9.48148 6.33333 9.87945 6.33333 10.3704C6.33333 10.7574 6.58068 11.0867 6.92593 11.2087ZM6.33333 11.5557V12.7397C6.33333 13.2312 6.72788 13.6296 7.22222 13.6296C7.71314 13.6296 8.11111 13.2319 8.11111 12.7397V11.5557C8.47095 11.2854 8.7037 10.8551 8.7037 10.3704C8.7037 9.55217 8.04042 8.88889 7.22222 8.88889C6.40402 8.88889 5.74074 9.55217 5.74074 10.3704C5.74074 10.8551 5.9735 11.2854 6.33333 11.5557ZM2.77778 6.51853V4.44399C2.77778 1.98916 4.76762 0 7.22222 0C9.67183 0 11.6667 1.98964 11.6667 4.44399V6.51853C12.6499 6.52133 13.4444 7.31871 13.4444 8.30191V14.2166C13.4444 15.2079 12.6462 16 11.6615 16H2.78299C1.79739 16 1 15.2015 1 14.2166V8.30191C1 7.31234 1.79546 6.52131 2.77778 6.51853ZM3.37037 6.51852V4.44055C3.37037 2.31595 5.0949 0.592593 7.22222 0.592593C9.34521 0.592593 11.0741 2.31538 11.0741 4.44055V6.51852H10.4815V4.44982C10.4815 2.64681 9.0186 1.18519 7.22222 1.18519C5.42218 1.18519 3.96296 2.64379 3.96296 4.44982V6.51852H3.37037ZM4.55556 6.51852V4.44495C4.55556 2.96844 5.74946 1.77778 7.22222 1.77778C8.69198 1.77778 9.88889 2.97191 9.88889 4.44495V6.51852H4.55556ZM2.77625 7.11111C2.12253 7.11111 1.59259 7.6427 1.59259 8.29977V14.2188C1.59259 14.8752 2.12055 15.4074 2.77625 15.4074H11.6682C12.3219 15.4074 12.8519 14.8758 12.8519 14.2188V8.29977C12.8519 7.64329 12.3239 7.11111 11.6682 7.11111H2.77625Z" fill="black"/>
</g>
<defs>
<clipPath id="clip0_402_6025">
<rect width="12.4444" height="16" fill="white" transform="translate(0.777832)"/>
</clipPath>
</defs>
</svg>
