<svg width="17" height="16" viewBox="0 0 17 16" fill="none" xmlns="http://www.w3.org/2000/svg">
<g clip-path="url(#clip0_73_197)">
<path d="M8.18091 0.163269C3.85993 0.163269 0.344177 3.67902 0.344177 8C0.344177 12.321 3.85993 15.8367 8.18091 15.8367C12.5019 15.8367 16.0176 12.321 16.0176 8C16.0176 3.67902 12.5019 0.163269 8.18091 0.163269ZM8.18091 15.1837C4.21977 15.1837 0.997238 11.9611 0.997238 8C0.997238 4.03886 4.21977 0.81633 8.18091 0.81633C12.1421 0.81633 15.3646 4.03886 15.3646 8C15.3646 11.9611 12.1421 15.1837 8.18091 15.1837Z" fill="#2E2E2E"/>
<path d="M8.50745 7.43739V2.12245H7.85439V7.43739C7.6601 7.55037 7.52786 7.7587 7.52786 8C7.52786 8.05813 7.53798 8.11331 7.55202 8.16719L4.68475 11.0345L5.14647 11.4962L8.01373 8.6289C8.06761 8.64294 8.12279 8.65306 8.18092 8.65306C8.54141 8.65306 8.83398 8.36082 8.83398 8C8.83398 7.75902 8.70173 7.5507 8.50745 7.43739Z" fill="#2E2E2E"/>
</g>
<defs>
<clipPath id="clip0_73_197">
<rect width="16" height="15.6735" fill="white" transform="translate(0.176453 0.163269)"/>
</clipPath>
</defs>
</svg>
