<svg width="16" height="12" viewBox="0 0 16 12" fill="none" xmlns="http://www.w3.org/2000/svg">
<g clip-path="url(#clip0_402_5988)">
<path d="M14.6666 0.333344H1.33328C1.03292 0.334037 0.745063 0.45369 0.532674 0.666063C0.320287 0.878463 0.200655 1.1663 0.199951 1.46668V10.5333C0.200655 10.8337 0.320287 11.1216 0.532674 11.334C0.745063 11.5463 1.03292 11.666 1.33328 11.6667H14.6666C14.967 11.666 15.2548 11.5463 15.4672 11.334C15.6796 11.1216 15.7993 10.8337 15.8 10.5333V1.46668C15.7993 1.1663 15.6796 0.878463 15.4672 0.666063C15.2548 0.45369 14.967 0.334037 14.6666 0.333344ZM15.1333 10.5333C15.1326 10.6569 15.0832 10.7752 14.9958 10.8625C14.9085 10.9499 14.7902 10.9993 14.6666 11H1.33328C1.20973 10.9993 1.09144 10.9499 1.00407 10.8625C0.916709 10.7752 0.867319 10.6569 0.866618 10.5333V1.46668C0.867319 1.34313 0.916709 1.22484 1.00407 1.13748C1.09144 1.05009 1.20973 1.0007 1.33328 1.00001H14.6666C14.7902 1.0007 14.9085 1.05009 14.9958 1.13748C15.0832 1.22484 15.1326 1.34313 15.1333 1.46668V10.5333Z" fill="black"/>
<path d="M5.95732 5.90135C6.23745 5.66244 6.43758 5.3434 6.53073 4.98722C6.62388 4.63103 6.60558 4.25484 6.47828 3.90938C6.35097 3.56391 6.12081 3.2658 5.81878 3.05522C5.51678 2.84466 5.15748 2.73175 4.78932 2.73175C4.42113 2.73175 4.06182 2.84466 3.75982 3.05522C3.4578 3.2658 3.22764 3.56391 3.10033 3.90938C2.97302 4.25484 2.95473 4.63103 3.04788 4.98722C3.14102 5.3434 3.34118 5.66244 3.62132 5.90135C3.06841 6.1338 2.59636 6.52423 2.26433 7.02372C1.93228 7.52322 1.75499 8.10956 1.75464 8.70935C1.75464 8.79775 1.78976 8.88255 1.85227 8.94506C1.91478 9.00756 1.99957 9.04268 2.08797 9.04268C2.17638 9.04268 2.26116 9.00756 2.32366 8.94506C2.3862 8.88255 2.42132 8.79775 2.42132 8.70935C2.42132 8.07919 2.67164 7.47484 3.11721 7.02927C3.56281 6.58367 4.16716 6.33335 4.79732 6.33335C5.42745 6.33335 6.0318 6.58367 6.4774 7.02927C6.92297 7.47484 7.17332 8.07919 7.17332 8.70935C7.17332 8.79775 7.20844 8.88255 7.27094 8.94506C7.33345 9.00756 7.41822 9.04268 7.50665 9.04268C7.59505 9.04268 7.67982 9.00756 7.74233 8.94506C7.80486 8.88255 7.83998 8.79775 7.83998 8.70935C7.8383 8.10775 7.65865 7.5201 7.32364 7.02042C6.9886 6.52074 6.51321 6.13135 5.95732 5.90135ZM3.65598 4.53335C3.65598 4.30964 3.7222 4.09098 3.84625 3.90482C3.97033 3.71868 4.1467 3.57343 4.35316 3.48735C4.55964 3.40127 4.78697 3.3782 5.00652 3.42108C5.22606 3.46394 5.42801 3.57084 5.58694 3.72826C5.74585 3.8857 5.85462 4.08666 5.89956 4.30578C5.94446 4.52492 5.92356 4.75244 5.8394 4.95972C5.75526 5.16698 5.61166 5.34471 5.42668 5.47052C5.24172 5.59634 5.02366 5.66458 4.79998 5.66668C4.65033 5.66775 4.50198 5.63922 4.3634 5.58276C4.22484 5.52631 4.09876 5.44306 3.99246 5.33775C3.88617 5.23242 3.80172 5.10716 3.74398 4.96911C3.68622 4.83108 3.65633 4.68298 3.65598 4.53335Z" fill="black"/>
<path d="M8.98934 3.12266H10.2773C10.3657 3.12266 10.4505 3.08754 10.513 3.02501C10.5756 2.9625 10.6107 2.87773 10.6107 2.78933C10.6107 2.7009 10.5756 2.61613 10.513 2.55362C10.4505 2.49111 10.3657 2.45599 10.2773 2.45599H8.98934C8.90091 2.45599 8.81614 2.49111 8.75363 2.55362C8.69113 2.61613 8.65601 2.7009 8.65601 2.78933C8.65601 2.87773 8.69113 2.9625 8.75363 3.02501C8.81614 3.08754 8.90091 3.12266 8.98934 3.12266Z" fill="black"/>
<path d="M13.648 4.29602H8.98934C8.90091 4.29602 8.81614 4.33114 8.75363 4.39365C8.69113 4.45615 8.65601 4.54095 8.65601 4.62935C8.65601 4.71775 8.69113 4.80255 8.75363 4.86506C8.81614 4.92757 8.90091 4.96269 8.98934 4.96269H13.648C13.7364 4.96269 13.8212 4.92757 13.8837 4.86506C13.9462 4.80255 13.9813 4.71775 13.9813 4.62935C13.9813 4.54095 13.9462 4.45615 13.8837 4.39365C13.8212 4.33114 13.7364 4.29602 13.648 4.29602Z" fill="black"/>
<path d="M13.648 6.13333H8.98934C8.90091 6.13333 8.81614 6.16845 8.75363 6.23096C8.69113 6.29346 8.65601 6.37826 8.65601 6.46666C8.65601 6.55506 8.69113 6.63986 8.75363 6.70237C8.81614 6.76488 8.90091 6.8 8.98934 6.8H13.648C13.7364 6.8 13.8212 6.76488 13.8837 6.70237C13.9462 6.63986 13.9813 6.55506 13.9813 6.46666C13.9813 6.37826 13.9462 6.29346 13.8837 6.23096C13.8212 6.16845 13.7364 6.13333 13.648 6.13333Z" fill="black"/>
<path d="M13.648 7.97064H8.98934C8.90091 7.97064 8.81614 8.00576 8.75363 8.06827C8.69113 8.13078 8.65601 8.21558 8.65601 8.30398C8.65601 8.39238 8.69113 8.47718 8.75363 8.53968C8.81614 8.60219 8.90091 8.63731 8.98934 8.63731H13.648C13.7364 8.63731 13.8212 8.60219 13.8837 8.53968C13.9462 8.47718 13.9813 8.39238 13.9813 8.30398C13.9813 8.21558 13.9462 8.13078 13.8837 8.06827C13.8212 8.00576 13.7364 7.97064 13.648 7.97064Z" fill="black"/>
<path d="M13.6479 9.81067H12.4185C12.3301 9.81067 12.2454 9.84579 12.1829 9.90832C12.1203 9.97083 12.0852 10.0556 12.0852 10.144C12.0852 10.2324 12.1203 10.3172 12.1829 10.3797C12.2454 10.4422 12.3301 10.4773 12.4185 10.4773H13.6479C13.7363 10.4773 13.8211 10.4422 13.8836 10.3797C13.9461 10.3172 13.9812 10.2324 13.9812 10.144C13.9812 10.0556 13.9461 9.97083 13.8836 9.90832C13.8211 9.84579 13.7363 9.81067 13.6479 9.81067Z" fill="black"/>
</g>
<defs>
<clipPath id="clip0_402_5988">
<rect width="16" height="11.7333" fill="white" transform="translate(0 0.133331)"/>
</clipPath>
</defs>
</svg>
