<svg width="14" height="16" viewBox="0 0 14 16" fill="none" xmlns="http://www.w3.org/2000/svg">
<g clip-path="url(#clip0_73_189)">
<path d="M6.5882 16C6.5182 16.001 6.45005 15.9775 6.39545 15.9337C6.17258 15.747 0.86586 11.3558 0.86586 6.60931C0.852562 5.8567 0.991898 5.1092 1.27546 4.41192C1.55902 3.71465 1.98093 3.08206 2.51571 2.55234C3.0505 2.02262 3.68708 1.60675 4.38702 1.32984C5.08696 1.05293 5.83575 0.920715 6.5882 0.941176C7.34065 0.920715 8.08944 1.05293 8.78939 1.32984C9.48933 1.60675 10.1259 2.02262 10.6607 2.55234C11.1955 3.08206 11.6174 3.71465 11.9009 4.41192C12.1845 5.1092 12.3238 5.8567 12.3105 6.60931C12.3105 10.886 7.01587 15.7169 6.78698 15.9217C6.73251 15.9712 6.6618 15.999 6.5882 16V16ZM6.5882 1.54353C5.91328 1.51682 5.24008 1.62917 4.61041 1.87359C3.98074 2.118 3.40805 2.48927 2.9279 2.96434C2.44775 3.4394 2.07041 4.00811 1.8193 4.63514C1.5682 5.26218 1.44869 5.93414 1.46821 6.60931C1.46821 10.5728 5.61239 14.4399 6.57615 15.2952C7.53389 14.3796 11.7082 10.1752 11.7082 6.60931C11.7277 5.93414 11.6082 5.26218 11.3571 4.63514C11.106 4.00811 10.7286 3.4394 10.2485 2.96434C9.76835 2.48927 9.19566 2.118 8.56599 1.87359C7.93632 1.62917 7.26312 1.51682 6.5882 1.54353V1.54353ZM6.5882 9.3741C6.0521 9.3741 5.52803 9.21513 5.08228 8.91729C4.63653 8.61944 4.28911 8.19611 4.08395 7.70081C3.87879 7.20552 3.82511 6.66051 3.9297 6.13471C4.03429 5.60891 4.29245 5.12593 4.67153 4.74685C5.05061 4.36777 5.53359 4.10961 6.05939 4.00502C6.58519 3.90043 7.1302 3.95411 7.6255 4.15927C8.12079 4.36442 8.54413 4.71185 8.84197 5.1576C9.13981 5.60335 9.29878 6.12742 9.29878 6.66352C9.29878 7.38241 9.0132 8.07186 8.50487 8.58019C7.99654 9.08852 7.30709 9.3741 6.5882 9.3741V9.3741ZM6.5882 4.55529C6.17123 4.55529 5.76363 4.67893 5.41693 4.91059C5.07023 5.14224 4.80002 5.4715 4.64045 5.85673C4.48088 6.24196 4.43913 6.66586 4.52048 7.07481C4.60183 7.48377 4.80262 7.85942 5.09746 8.15426C5.3923 8.4491 5.76795 8.64989 6.17691 8.73124C6.58586 8.81259 7.00976 8.77084 7.39499 8.61127C7.78021 8.4517 8.10948 8.18149 8.34113 7.83479C8.57279 7.48809 8.69643 7.08049 8.69643 6.66352C8.69643 6.10438 8.47431 5.56814 8.07894 5.17277C7.68358 4.7774 7.14734 4.55529 6.5882 4.55529Z" fill="#2E2E2E"/>
</g>
<defs>
<clipPath id="clip0_73_189">
<rect width="13.1764" height="16" fill="white"/>
</clipPath>
</defs>
</svg>
