<svg width="15" height="16" viewBox="0 0 15 16" fill="none" xmlns="http://www.w3.org/2000/svg">
<g clip-path="url(#clip0_609_4411)">
<path fill-rule="evenodd" clip-rule="evenodd" d="M5.76054 0.967441C6.07199 0.369266 6.71777 0.00897217 7.39491 0.00897217C8.07204 0.00897217 8.71782 0.369266 9.02927 0.967441C10.9459 1.66292 12.3715 3.45643 12.3715 5.67396C12.3715 7.52558 12.9159 9.32021 13.9485 10.842L13.9547 10.8511L14.5899 11.833C14.8269 12.2121 14.8367 12.6621 14.6425 13.0245C14.4456 13.3922 14.0581 13.6336 13.5905 13.6336H1.19928C0.731698 13.6336 0.344243 13.3922 0.147283 13.0245C-0.0468619 12.6621 -0.0369873 12.2121 0.199944 11.833L0.204123 11.8263L0.841183 10.8419C1.8738 9.32014 2.41832 7.52558 2.41832 5.67396C2.41832 3.45643 3.84389 1.66292 5.76054 0.967441Z" fill="black"/>
<path d="M9.68958 13.1317C9.68958 14.3937 8.65697 15.4263 7.3949 15.4263C6.13282 15.4263 5.10022 14.3937 5.10022 13.1317" stroke="black" stroke-miterlimit="10" stroke-linecap="round" stroke-linejoin="round"/>
</g>
<defs>
<clipPath id="clip0_609_4411">
<rect width="14.9333" height="16" fill="white"/>
</clipPath>
</defs>
</svg>
