<svg width="16" height="14" viewBox="0 0 16 14" fill="none" xmlns="http://www.w3.org/2000/svg">
<g clip-path="url(#clip0_609_4450)">
<path d="M13.6666 2.99984C13.6666 2.91143 13.6315 2.82665 13.569 2.76414C13.5065 2.70162 13.4217 2.6665 13.3333 2.6665H13C12.9116 2.6665 12.8268 2.70162 12.7643 2.76414C12.7017 2.82665 12.6666 2.91143 12.6666 2.99984V5.6665H13.6666V2.99984Z" fill="black"/>
<path d="M12 2.99984C12 2.91143 11.9649 2.82665 11.9024 2.76414C11.8399 2.70162 11.7551 2.6665 11.6667 2.6665H11.3333C11.2449 2.6665 11.1601 2.70162 11.0976 2.76414C11.0351 2.82665 11 2.91143 11 2.99984V5.6665H12V2.99984Z" fill="black"/>
<path d="M10.3333 2.99984C10.3333 2.91143 10.2981 2.82665 10.2356 2.76414C10.1731 2.70162 10.0883 2.6665 9.99992 2.6665H9.66659C9.57818 2.6665 9.49339 2.70162 9.43088 2.76414C9.36837 2.82665 9.33325 2.91143 9.33325 2.99984V5.6665H10.3333V2.99984Z" fill="black"/>
<path d="M3 4.99992H4.33333V5.66659H6V4.99992H7.33333C7.59855 4.99992 7.8529 4.89456 8.04044 4.70703C8.22798 4.51949 8.33333 4.26514 8.33333 3.99992V1.33325C8.33333 1.06804 8.22798 0.813682 8.04044 0.626145C7.8529 0.438609 7.59855 0.333252 7.33333 0.333252H3C2.73478 0.333252 2.48043 0.438609 2.29289 0.626145C2.10536 0.813682 2 1.06804 2 1.33325V3.99992C2 4.26514 2.10536 4.51949 2.29289 4.70703C2.48043 4.89456 2.73478 4.99992 3 4.99992ZM2.66667 1.33325C2.66667 1.24485 2.70179 1.16006 2.7643 1.09755C2.82681 1.03504 2.91159 0.999919 3 0.999919H7.33333C7.42174 0.999919 7.50652 1.03504 7.56904 1.09755C7.63155 1.16006 7.66667 1.24485 7.66667 1.33325V3.99992C7.66667 4.08832 7.63155 4.17311 7.56904 4.23562C7.50652 4.29813 7.42174 4.33325 7.33333 4.33325H3C2.91159 4.33325 2.82681 4.29813 2.7643 4.23562C2.70179 4.17311 2.66667 4.08832 2.66667 3.99992V1.33325Z" fill="black"/>
<path d="M14.6666 6.33325H1.33329C1.15648 6.33325 0.986912 6.40349 0.861888 6.52851C0.736864 6.65354 0.666626 6.82311 0.666626 6.99992V7.33325C0.666626 7.51006 0.736864 7.67963 0.861888 7.80466C0.986912 7.92968 1.15648 7.99992 1.33329 7.99992H1.66663V13.3333C1.66663 13.4217 1.70175 13.5064 1.76426 13.569C1.82677 13.6315 1.91155 13.6666 1.99996 13.6666C2.08836 13.6666 2.17315 13.6315 2.23566 13.569C2.29817 13.5064 2.33329 13.4217 2.33329 13.3333V7.99992H9.33329V13.3333C9.33329 13.4217 9.36841 13.5064 9.43092 13.569C9.49344 13.6315 9.57822 13.6666 9.66663 13.6666C9.75503 13.6666 9.83982 13.6315 9.90233 13.569C9.96484 13.5064 9.99996 13.4217 9.99996 13.3333V11.9999H13.6666V13.3333C13.6666 13.4217 13.7017 13.5064 13.7643 13.569C13.8268 13.6315 13.9116 13.6666 14 13.6666C14.0884 13.6666 14.1732 13.6315 14.2357 13.569C14.2982 13.5064 14.3333 13.4217 14.3333 13.3333V7.99992H14.6666C14.8434 7.99992 15.013 7.92968 15.138 7.80466C15.2631 7.67963 15.3333 7.51006 15.3333 7.33325V6.99992C15.3333 6.82311 15.2631 6.65354 15.138 6.52851C15.013 6.40349 14.8434 6.33325 14.6666 6.33325ZM13.6666 10.6666C13.6666 10.755 13.6315 10.8398 13.569 10.9023C13.5065 10.9648 13.4217 10.9999 13.3333 10.9999H10.3333C10.2449 10.9999 10.1601 10.9648 10.0976 10.9023C10.0351 10.8398 9.99996 10.755 9.99996 10.6666V10.3333C9.99996 10.2448 10.0351 10.1601 10.0976 10.0975C10.1601 10.035 10.2449 9.99992 10.3333 9.99992H13.3333C13.4217 9.99992 13.5065 10.035 13.569 10.0975C13.6315 10.1601 13.6666 10.2448 13.6666 10.3333V10.6666ZM13.6666 8.66659C13.6666 8.75499 13.6315 8.83978 13.569 8.90229C13.5065 8.9648 13.4217 8.99992 13.3333 8.99992H10.3333C10.2449 8.99992 10.1601 8.9648 10.0976 8.90229C10.0351 8.83978 9.99996 8.75499 9.99996 8.66659V8.33325C9.99996 8.24485 10.0351 8.16006 10.0976 8.09755C10.1601 8.03504 10.2449 7.99992 10.3333 7.99992H13.3333C13.4217 7.99992 13.5065 8.03504 13.569 8.09755C13.6315 8.16006 13.6666 8.24485 13.6666 8.33325V8.66659Z" fill="black"/>
</g>
<defs>
<clipPath id="clip0_609_4450">
<rect width="16" height="14" fill="white"/>
</clipPath>
</defs>
</svg>
