<svg width="16" height="16" viewBox="0 0 16 16" fill="none" xmlns="http://www.w3.org/2000/svg">
<g clip-path="url(#clip0_609_4433)">
<path d="M8 0C5.87827 0 3.84344 0.842855 2.34315 2.34315C0.842855 3.84344 0 5.87827 0 8C0.44 18.6133 15.5627 18.6107 16 8C16 5.87827 15.1571 3.84344 13.6569 2.34315C12.1566 0.842855 10.1217 0 8 0V0ZM8 14.9333C6.16117 14.9333 4.39765 14.2029 3.09739 12.9026C1.79714 11.6024 1.06667 9.83883 1.06667 8C1.448 -1.19733 14.5547 -1.19467 14.9333 8C14.9333 9.83883 14.2029 11.6024 12.9026 12.9026C11.6024 14.2029 9.83883 14.9333 8 14.9333V14.9333Z" fill="black"/>
<path d="M7.99999 4.3893H10.072C10.2134 4.3893 10.3491 4.33311 10.4491 4.23309C10.5491 4.13307 10.6053 3.99742 10.6053 3.85597C10.6053 3.71452 10.5491 3.57886 10.4491 3.47884C10.3491 3.37882 10.2134 3.32263 10.072 3.32263H8.53332V2.66663C8.53332 2.52519 8.47713 2.38953 8.37711 2.28951C8.27709 2.18949 8.14144 2.1333 7.99999 2.1333C7.85854 2.1333 7.72288 2.18949 7.62286 2.28951C7.52284 2.38953 7.46665 2.52519 7.46665 2.66663V3.37863C4.43999 4.08263 4.86665 8.4453 7.99999 8.5333C8.40807 8.5333 8.79943 8.69541 9.08799 8.98397C9.37654 9.27252 9.53865 9.66389 9.53865 10.072C9.53865 10.48 9.37654 10.8714 9.08799 11.16C8.79943 11.4485 8.40807 11.6106 7.99999 11.6106H5.92799C5.78654 11.6106 5.65088 11.6668 5.55086 11.7668C5.45084 11.8669 5.39465 12.0025 5.39465 12.144C5.39465 12.2854 5.45084 12.4211 5.55086 12.5211C5.65088 12.6211 5.78654 12.6773 5.92799 12.6773H7.46665V13.3333C7.46665 13.4748 7.52284 13.6104 7.62286 13.7104C7.72288 13.8104 7.85854 13.8666 7.99999 13.8666C8.14144 13.8666 8.27709 13.8104 8.37711 13.7104C8.47713 13.6104 8.53332 13.4748 8.53332 13.3333V12.6213C11.5573 11.9173 11.1333 7.55463 7.99999 7.46663C5.96799 7.40263 5.96799 4.45597 7.99999 4.3893Z" fill="black"/>
</g>
<defs>
<clipPath id="clip0_609_4433">
<rect width="16" height="16" fill="white"/>
</clipPath>
</defs>
</svg>
