<svg width="12" height="16" viewBox="0 0 12 16" fill="none" xmlns="http://www.w3.org/2000/svg">
<g clip-path="url(#clip0_167_979)">
<path d="M8.57143 15.5714H2.85714C2.09938 15.5714 1.37266 15.2704 0.836838 14.7346C0.301019 14.1988 0 13.472 0 12.7143V12.1429C0 10.7789 0.541835 9.47078 1.50631 8.50631C2.47078 7.54184 3.77889 7 5.14286 7H6.28571C7.64968 7 8.95779 7.54184 9.92226 8.50631C10.8867 9.47078 11.4286 10.7789 11.4286 12.1429V12.7143C11.4286 13.472 11.1276 14.1988 10.5917 14.7346C10.0559 15.2704 9.32919 15.5714 8.57143 15.5714ZM5.14286 8.14286C4.08199 8.14286 3.06458 8.56428 2.31443 9.31443C1.56428 10.0646 1.14286 11.082 1.14286 12.1429V12.7143C1.14286 13.1689 1.32347 13.605 1.64496 13.9265C1.96645 14.248 2.40249 14.4286 2.85714 14.4286H8.57143C9.02609 14.4286 9.46212 14.248 9.78361 13.9265C10.1051 13.605 10.2857 13.1689 10.2857 12.7143V12.1429C10.2857 11.082 9.86429 10.0646 9.11414 9.31443C8.364 8.56428 7.34658 8.14286 6.28571 8.14286H5.14286Z" fill="black"/>
<path d="M6.42857 6.85714C5.75047 6.85714 5.08759 6.65606 4.52376 6.27933C3.95993 5.90259 3.52049 5.36712 3.26099 4.74063C3.00149 4.11414 2.93359 3.42477 3.06588 2.75969C3.19817 2.09461 3.52471 1.4837 4.00421 1.00421C4.4837 0.524712 5.09461 0.198173 5.75969 0.0658806C6.42477 -0.0664116 7.11414 0.00148556 7.74063 0.260986C8.36712 0.520486 8.90259 0.959935 9.27933 1.52376C9.65606 2.08759 9.85714 2.75047 9.85714 3.42857C9.85714 4.33789 9.49592 5.20996 8.85294 5.85294C8.20996 6.49592 7.33789 6.85714 6.42857 6.85714ZM6.42857 1.14286C5.9765 1.14286 5.53458 1.27691 5.1587 1.52807C4.78281 1.77923 4.48985 2.13621 4.31685 2.55387C4.14385 2.97153 4.09858 3.43111 4.18678 3.87449C4.27497 4.31788 4.49267 4.72515 4.81233 5.04482C5.13199 5.36448 5.53927 5.58217 5.98265 5.67037C6.42604 5.75856 6.88562 5.7133 7.30328 5.5403C7.72094 5.3673 8.07792 5.07433 8.32907 4.69845C8.58023 4.32256 8.71429 3.88064 8.71429 3.42857C8.71429 2.82236 8.47347 2.24098 8.04482 1.81233C7.61616 1.38367 7.03478 1.14286 6.42857 1.14286Z" fill="black"/>
</g>
<defs>
<clipPath id="clip0_167_979">
<rect width="11.4286" height="16" fill="white" transform="translate(0.285645)"/>
</clipPath>
</defs>
</svg>
