<svg width="16" height="16" viewBox="0 0 16 16" fill="none" xmlns="http://www.w3.org/2000/svg">
<g clip-path="url(#clip0_242_2816)">
<path d="M8 16C6.41776 16 4.87103 15.5308 3.55544 14.6518C2.23985 13.7727 1.21447 12.5233 0.608969 11.0614C0.0034646 9.59968 -0.154959 7.99112 0.153721 6.43928C0.462401 4.88743 1.22433 3.46197 2.34315 2.34315C3.46197 1.22433 4.88743 0.462401 6.43928 0.153721C7.99112 -0.154959 9.59968 0.0034646 11.0614 0.608969C12.5233 1.21447 13.7727 2.23985 14.6518 3.55544C15.5308 4.87103 16 6.41776 16 8C15.9977 10.121 15.1541 12.1545 13.6543 13.6543C12.1545 15.1541 10.121 15.9977 8 16ZM8 1.6C6.73424 1.6 5.49683 1.97536 4.44435 2.6786C3.39188 3.38184 2.57158 4.38139 2.08718 5.55083C1.60278 6.72024 1.47603 8.00712 1.72298 9.24856C1.96992 10.4901 2.57946 11.6304 3.47452 12.5255C4.36958 13.4206 5.50994 14.0301 6.75144 14.277C7.99288 14.524 9.27976 14.3972 10.4492 13.9128C11.6186 13.4284 12.6182 12.6082 13.3214 11.5557C14.0246 10.5032 14.4 9.26584 14.4 8C14.3981 6.3032 13.7232 4.67645 12.5234 3.47662C11.3236 2.27681 9.6968 1.60191 8 1.6ZM8 12C7.78784 12 7.58432 11.9157 7.43432 11.7657C7.28432 11.6157 7.2 11.4122 7.2 11.2V7.2C7.2 6.98784 7.28432 6.78432 7.43432 6.63432C7.58432 6.48432 7.78784 6.4 8 6.4C8.21216 6.4 8.41568 6.48432 8.56568 6.63432C8.71568 6.78432 8.8 6.98784 8.8 7.2V11.2C8.8 11.4122 8.71568 11.6157 8.56568 11.7657C8.41568 11.9157 8.21216 12 8 12ZM8 5.6C7.84176 5.6 7.68712 5.55309 7.55552 5.46518C7.424 5.37727 7.32144 5.25233 7.26088 5.10615C7.20032 4.95997 7.18448 4.79912 7.21536 4.64393C7.24624 4.48874 7.3224 4.3462 7.43432 4.23432C7.54624 4.12244 7.68872 4.04624 7.84392 4.01538C7.99912 3.9845 8.16 4.00035 8.30616 4.0609C8.45232 4.12145 8.57728 4.22399 8.6652 4.35554C8.75312 4.4871 8.8 4.64178 8.8 4.8C8.8 5.01218 8.71568 5.21566 8.56568 5.36569C8.41568 5.51572 8.21216 5.6 8 5.6Z" fill="black"/>
</g>
<defs>
<clipPath id="clip0_242_2816">
<rect width="16" height="16" fill="white"/>
</clipPath>
</defs>
</svg>
