<svg width="16" height="14" viewBox="0 0 16 14" fill="none" xmlns="http://www.w3.org/2000/svg">
<g clip-path="url(#clip0_609_4443)">
<path d="M8.46712 8.77917C8.13705 8.31221 7.60696 8.02686 7.03859 8.00527C7.02656 8.00392 7.01437 8.00318 7.00199 8.00318C6.27902 8.00318 5.68162 7.4568 5.60015 6.75536C5.80831 6.60377 6.00037 6.4114 6.17059 6.18096C6.51481 5.71493 6.73824 5.13262 6.82109 4.5029C6.84646 4.4753 6.86784 4.44318 6.88318 4.40662C7.02893 4.05955 7.10284 3.68902 7.10284 3.3053C7.10284 1.82965 5.98715 0.62915 4.61584 0.62915C4.26118 0.62915 3.91709 0.709713 3.59184 0.868681C3.47025 0.878931 3.35109 0.900806 3.23668 0.933931C2.09025 1.26515 1.44228 2.65134 1.79231 4.02393C1.82753 4.16202 1.87231 4.29783 1.9255 4.42755C1.94 4.46299 1.96031 4.49412 1.98425 4.5213C2.11628 5.49074 2.57512 6.29733 3.20265 6.75361C3.122 7.45593 2.52415 8.00324 1.80056 8.00324C1.78944 8.00324 1.77844 8.00383 1.76756 8.00489C0.78703 8.03955 0 8.84746 0 9.83627V11.8094C0 11.9935 0.149219 12.1427 0.333312 12.1427H6.2224C6.40646 12.1427 6.55571 11.9935 6.55571 11.8094C6.55571 11.6253 6.40646 11.4761 6.2224 11.4761H0.666593V9.83624C0.666593 9.19295 1.18991 8.66967 1.83315 8.66967C1.84428 8.66967 1.85528 8.66908 1.86615 8.66802C2.10625 8.66052 2.33615 8.61221 2.54922 8.52961L4.12725 10.8072C4.1895 10.897 4.29187 10.9507 4.40121 10.9507C4.51056 10.9507 4.61293 10.8971 4.67518 10.8072L6.25324 8.52961C6.46634 8.61221 6.69621 8.66052 6.93631 8.66802C6.94718 8.66908 6.95818 8.66967 6.96931 8.66967C7.34759 8.66967 7.70402 8.85442 7.92274 9.16389C7.98768 9.25577 8.09062 9.30483 8.19521 9.30483C8.26171 9.30483 8.32887 9.28495 8.3873 9.24367C8.53765 9.13749 8.57333 8.92949 8.46712 8.77917ZM3.42162 1.57421C3.50906 1.54896 3.60153 1.53396 3.6965 1.52968C3.74543 1.52749 3.79318 1.51456 3.83656 1.49177C4.08425 1.36165 4.34637 1.29565 4.61571 1.29565C5.59915 1.29565 6.4024 2.16109 6.43459 3.23821C6.23415 3.08665 5.98481 2.99655 5.71474 2.99655H3.97165C3.88484 2.99655 3.8024 2.9693 3.73337 2.91777C3.67428 2.87368 3.62865 2.81449 3.60137 2.74646C3.5384 2.58977 3.38262 2.4919 3.2144 2.50252C3.04515 2.51337 2.90275 2.63099 2.86009 2.79505C2.77506 3.12171 2.61631 3.42593 2.40047 3.68427C2.22759 2.71784 2.6629 1.79343 3.42162 1.57421ZM2.63997 4.39696C2.93109 4.13008 3.16668 3.80665 3.33118 3.44946C3.33231 3.4503 3.33347 3.45115 3.33462 3.45199C3.51978 3.59018 3.74003 3.66318 3.97162 3.66318H5.71471C5.92409 3.66318 6.10493 3.78568 6.19077 3.96246C6.18856 4.65487 5.99128 5.30165 5.63434 5.7848C5.29774 6.24043 4.85981 6.49136 4.40115 6.49136C3.97668 6.49136 3.56343 6.27208 3.23753 5.87396C2.92134 5.48774 2.71212 4.96787 2.63997 4.39696ZM4.40118 10.0321L3.12565 8.19114C3.46784 7.90721 3.71728 7.51564 3.82275 7.06902C4.00846 7.12714 4.20215 7.15802 4.40115 7.15802C4.59909 7.15802 4.79293 7.12799 4.9799 7.06999C5.08549 7.51618 5.33484 7.90736 5.67678 8.19111L4.40118 10.0321Z" fill="black"/>
<path d="M14.2325 9.8579C14.2217 9.85683 14.2107 9.85624 14.1995 9.85624C13.4756 9.85624 12.8775 9.3084 12.7973 8.60552C13.2055 8.30827 13.5421 7.86259 13.7639 7.32055C13.7957 7.42443 13.8769 7.5083 13.9839 7.54146C14.0164 7.55152 14.0496 7.55643 14.0825 7.55643C14.1835 7.55643 14.2813 7.5104 14.3456 7.42787C14.8106 6.83062 15.0523 6.05331 15.0263 5.23909C15.0008 4.44034 14.72 3.69049 14.2356 3.12775C13.7397 2.55156 13.085 2.2309 12.3915 2.22428C12.3547 2.22278 12.2632 2.22593 12.2484 2.22684C11.8921 2.06522 11.5156 1.98972 11.1279 2.00203C10.3271 2.02762 9.59051 2.42675 9.05385 3.12587C8.53235 3.80528 8.26151 4.69143 8.29123 5.62118C8.29626 5.77871 8.3087 5.92377 8.32882 6.0619C8.3831 6.45812 8.49226 6.83759 8.65323 7.18974C8.70445 7.30184 8.81335 7.37652 8.93635 7.3839C9.05895 7.3913 9.17638 7.33021 9.24069 7.22505C9.26751 7.18121 9.30198 7.12655 9.34001 7.07299C9.4886 7.5244 9.71576 7.92996 10.0042 8.25015C10.1272 8.38674 10.2601 8.50555 10.4 8.6069C10.3192 9.30905 9.72141 9.85618 8.99795 9.85618C8.98682 9.85618 8.97582 9.85677 8.96495 9.85783C7.98451 9.89258 7.19751 10.7006 7.19751 11.6893V13.6624C7.19751 13.8465 7.34676 13.9957 7.53082 13.9957H15.6666C15.8507 13.9957 15.9999 13.8465 15.9999 13.6624V11.6893C16 10.7006 15.213 9.89268 14.2325 9.8579ZM9.06601 6.36321C9.03313 6.23484 9.00738 6.10318 8.98891 5.96865C8.97204 5.85277 8.96179 5.73215 8.95757 5.59993C8.93276 4.82377 9.15476 4.08928 9.58269 3.53181C9.99544 2.99406 10.5518 2.68743 11.1492 2.66834C11.1692 2.66768 11.5988 2.6435 12.0373 2.8645C12.0864 2.88918 12.1429 2.90065 12.1979 2.89909C12.2042 2.8989 12.3753 2.89081 12.3803 2.89087C12.8809 2.89418 13.3603 3.13278 13.7304 3.56265C14.1157 4.0104 14.3393 4.61334 14.36 5.26043C14.3713 5.6119 14.3219 5.95356 14.2173 6.2679C14.1858 6.18396 14.1507 6.10131 14.112 6.02002C13.7902 5.33534 13.2485 4.80499 12.5867 4.52665C12.5028 4.4914 12.4083 4.49193 12.3248 4.52812C12.2414 4.56428 12.1764 4.63296 12.1449 4.71828C12.1005 4.83815 12.0468 4.95493 11.985 5.06534C11.8105 5.3774 11.4587 5.56306 11.0675 5.54937C11.0088 5.54737 10.9492 5.54727 10.8904 5.54915C10.6022 5.55837 10.3211 5.61331 10.0535 5.71296C9.78923 5.81271 9.34504 6.06299 9.06601 6.36321ZM9.88598 6.54462C10.0124 6.45996 10.1468 6.39024 10.2876 6.33702C10.4859 6.26321 10.6959 6.22227 10.9117 6.21537C10.9558 6.21393 11.0004 6.21399 11.0444 6.21552C11.6879 6.23756 12.2699 5.92162 12.5668 5.39065C12.5851 5.35799 12.6028 5.32484 12.62 5.29137C12.924 5.47865 13.1838 5.74262 13.3792 6.06299C13.3775 6.07287 13.3761 6.08277 13.3753 6.09296C13.3241 6.72537 13.106 7.30574 12.7609 7.72718C12.435 8.12533 12.0218 8.34458 11.5973 8.34458C10.8126 8.34452 10.1146 7.59862 9.88598 6.54462ZM11.0204 8.92155C11.208 8.98018 11.4015 9.01112 11.5973 9.01112C11.7968 9.01112 11.991 8.98005 12.1772 8.92161C12.311 9.48921 12.6781 9.96743 13.1715 10.2496C12.979 10.9451 12.3394 11.4451 11.5988 11.4451C10.8583 11.4451 10.2187 10.945 10.0262 10.2495C10.5196 9.96743 10.8866 9.48918 11.0204 8.92155ZM15.3334 13.3292H7.8642V11.6894C7.8642 11.0461 8.38751 10.5228 9.03076 10.5228C9.04188 10.5228 9.05288 10.5222 9.06376 10.5211C9.17854 10.5176 9.29107 10.5049 9.40048 10.4834C9.69001 11.4339 10.5759 12.1118 11.5988 12.1118C12.6218 12.1118 13.5076 11.4339 13.7972 10.4834C13.9066 10.505 14.0191 10.5176 14.1338 10.5211C14.1447 10.5222 14.1557 10.5228 14.1668 10.5228C14.8101 10.5228 15.3334 11.0461 15.3334 11.6894V13.3292V13.3292Z" fill="black"/>
</g>
<defs>
<clipPath id="clip0_609_4443">
<rect width="16" height="13.375" fill="white" transform="translate(0 0.625)"/>
</clipPath>
</defs>
</svg>
