<svg width="16" height="16" viewBox="0 0 16 16" fill="none" xmlns="http://www.w3.org/2000/svg">
<g clip-path="url(#clip0_402_5915)">
<path d="M3.66667 2C2.74767 2 2 2.74767 2 3.66667C2 4.58567 2.74767 5.33333 3.66667 5.33333C4.58567 5.33333 5.33333 4.58567 5.33333 3.66667C5.33333 2.74767 4.58567 2 3.66667 2ZM3.66667 4.66667C3.11533 4.66667 2.66667 4.218 2.66667 3.66667C2.66667 3.11533 3.11533 2.66667 3.66667 2.66667C4.218 2.66667 4.66667 3.11533 4.66667 3.66667C4.66667 4.218 4.218 4.66667 3.66667 4.66667ZM8.92 6.61C9.73 4.84 9.36333 2.75967 7.97333 1.36667C7.09 0.486667 5.91667 0 4.67 0C3.42333 0 2.25 0.486667 1.36667 1.36667C0.486667 2.25 0 3.42333 0 4.67C0 5.91667 0.486667 7.09 1.36667 7.97333C2.25 8.85333 3.42333 9.34 4.67 9.34C5.33667 9.34 6.00333 9.19667 6.61 8.92L7.89633 10.2067L9.68633 10.8397L10.04 12.44L11.6133 12.7867L11.9733 14.4063L13.2933 14.4363L14.1333 16H16V13.8633L8.92 6.61ZM15.3333 15.3333H14.5333L13.6967 13.78L12.51 13.7533L12.173 12.2267L10.5997 11.88L10.2567 10.3333L8.26 9.62667L6.74033 8.10667L6.52367 8.22C5.95333 8.51667 5.31333 8.673 4.67 8.673C3.6 8.673 2.59667 8.25633 1.84 7.49967C1.08333 6.74333 0.666667 5.74033 0.666667 4.67C0.666667 3.6 1.08333 2.59667 1.84 1.84C2.59667 1.08333 3.6 0.666667 4.67 0.666667C5.74033 0.666667 6.74367 1.08333 7.5 1.84C8.74333 3.08333 9.03333 4.96367 8.22 6.52367L8.11 6.737L15.3333 14.1367V15.3333Z" fill="black"/>
</g>
<defs>
<clipPath id="clip0_402_5915">
<rect width="16" height="16" fill="white"/>
</clipPath>
</defs>
</svg>
