<svg width="16" height="14" viewBox="0 0 16 14" fill="none" xmlns="http://www.w3.org/2000/svg">
<g clip-path="url(#clip0_609_4428)">
<path fill-rule="evenodd" clip-rule="evenodd" d="M5.032 13.3998C11.0696 13.3998 14.372 8.47466 14.372 4.20411C14.372 4.06391 14.372 3.92476 14.3624 3.78614C15.0048 3.32931 15.5592 2.7621 16 2.11309C15.4016 2.37459 14.7656 2.54608 14.1152 2.62169C14.8 2.21763 15.3128 1.58284 15.5584 0.833796C14.9136 1.21028 14.2088 1.47599 13.4736 1.61856C12.2304 0.317385 10.1512 0.254343 8.8288 1.47833C7.9768 2.26754 7.6144 3.44423 7.8792 4.56661C5.24 4.43586 2.7808 3.20875 1.1136 1.19005C0.2424 2.66685 0.688 4.55541 2.1304 5.50372C1.608 5.48875 1.0968 5.35028 0.64 5.09981V5.14083C0.6408 6.67908 1.7424 8.0036 3.2736 8.30841C2.7904 8.43837 2.2832 8.45721 1.792 8.36348C2.2216 9.68041 3.4544 10.5824 4.8584 10.6084C3.696 11.5079 2.26 11.9963 0.7816 11.9947C0.5208 11.9939 0.26 11.979 0 11.9482C1.5016 12.8966 3.248 13.3998 5.032 13.3975" fill="black"/>
</g>
<defs>
<clipPath id="clip0_609_4428">
<rect width="16" height="12.8" fill="white" transform="translate(0 0.599976)"/>
</clipPath>
</defs>
</svg>
