<svg width="16" height="16" viewBox="0 0 16 16" fill="none" xmlns="http://www.w3.org/2000/svg">
<g clip-path="url(#clip0_609_4424)">
<path fill-rule="evenodd" clip-rule="evenodd" d="M8 0C3.58173 0 0 3.58173 0 8C0 12.4183 3.58173 16 8 16C12.4183 16 16 12.4183 16 8C16 3.58173 12.4183 0 8 0ZM6.2411 3.7591C6.6962 3.7384 6.84163 3.73333 8.0004 3.73333H7.99907C9.1582 3.73333 9.30307 3.7384 9.7582 3.7591C10.2124 3.7799 10.5226 3.85183 10.7947 3.95733C11.0755 4.06623 11.3129 4.212 11.5502 4.44933C11.7876 4.6865 11.9333 4.92453 12.0427 5.20517C12.1476 5.47647 12.2196 5.7865 12.2409 6.24073C12.2613 6.69587 12.2667 6.84127 12.2667 8.00003C12.2667 9.1588 12.2613 9.30387 12.2409 9.759C12.2196 10.213 12.1476 10.5232 12.0427 10.7946C11.9333 11.0751 11.7876 11.3131 11.5502 11.5503C11.3131 11.7876 11.0755 11.9338 10.7949 12.0428C10.5234 12.1483 10.213 12.2202 9.75883 12.241C9.3037 12.2617 9.15873 12.2668 7.99987 12.2668C6.8412 12.2668 6.69587 12.2617 6.24073 12.241C5.7866 12.2202 5.47647 12.1483 5.205 12.0428C4.92453 11.9338 4.6865 11.7876 4.44943 11.5503C4.21217 11.3131 4.0664 11.0751 3.95733 10.7945C3.8519 10.5232 3.78 10.2131 3.7591 9.7589C3.7385 9.3038 3.73333 9.1588 3.73333 8.00003C3.73333 6.84127 3.73867 6.69577 3.75903 6.24063C3.77947 5.7866 3.85147 5.47647 3.95723 5.20507C4.06657 4.92453 4.21237 4.6865 4.4497 4.44933C4.68687 4.2121 4.9249 4.0663 5.20553 3.95733C5.47683 3.85183 5.78687 3.7799 6.2411 3.7591Z" fill="black"/>
<path fill-rule="evenodd" clip-rule="evenodd" d="M7.61763 4.50229C7.69193 4.50219 7.7719 4.50222 7.85816 4.50225L8.0004 4.50229C9.1396 4.50229 9.27463 4.50639 9.7245 4.52682C10.1405 4.54585 10.3663 4.61535 10.5167 4.67375C10.7158 4.75109 10.8577 4.84355 11.007 4.99289C11.1563 5.14222 11.2488 5.28445 11.3263 5.48355C11.3847 5.63379 11.4543 5.85955 11.4732 6.27555C11.4937 6.72535 11.4981 6.86045 11.4981 7.99912C11.4981 9.13782 11.4937 9.27292 11.4732 9.72272C11.4542 10.1387 11.3847 10.3645 11.3263 10.5147C11.249 10.7138 11.1563 10.8556 11.007 11.0049C10.8577 11.1542 10.7159 11.2467 10.5167 11.324C10.3665 11.3827 10.1405 11.452 9.7245 11.471C9.2747 11.4915 9.1396 11.4959 8.0004 11.4959C6.8611 11.4959 6.72606 11.4915 6.27626 11.471C5.86026 11.4518 5.6345 11.3823 5.484 11.3239C5.2849 11.2466 5.14266 11.1541 4.99333 11.0048C4.844 10.8554 4.75156 10.7136 4.67403 10.5144C4.61563 10.3642 4.54603 10.1384 4.5271 9.72235C4.50666 9.27259 4.50256 9.13745 4.50256 7.99805C4.50256 6.85869 4.50666 6.72429 4.5271 6.27449C4.54613 5.85849 4.61563 5.63272 4.67403 5.48232C4.75136 5.28319 4.844 5.14099 4.99333 4.99165C5.14266 4.84232 5.2849 4.74985 5.484 4.67235C5.6344 4.61369 5.86026 4.54435 6.27626 4.52522C6.66986 4.50745 6.82243 4.50212 7.61763 4.50122V4.50229ZM10.2779 5.21075C9.99526 5.21075 9.7659 5.43982 9.7659 5.72259C9.7659 6.00525 9.99526 6.23459 10.2779 6.23459C10.5606 6.23459 10.7899 6.00525 10.7899 5.72259C10.7899 5.43992 10.5606 5.21059 10.2779 5.21059V5.21075ZM5.80926 8.00012C5.80926 6.79009 6.79026 5.80902 8.0003 5.80899C9.21036 5.80899 10.1912 6.79005 10.1912 8.00012C10.1912 9.21019 9.21043 10.1908 8.0004 10.1908C6.79033 10.1908 5.80926 9.21019 5.80926 8.00012Z" fill="black"/>
<path d="M8.00036 6.57776C8.78579 6.57776 9.42259 7.21449 9.42259 7.99999C9.42259 8.78542 8.78579 9.42223 8.00036 9.42223C7.21486 9.42223 6.57812 8.78542 6.57812 7.99999C6.57812 7.21449 7.21486 6.57776 8.00036 6.57776Z" fill="black"/>
</g>
<defs>
<clipPath id="clip0_609_4424">
<rect width="16" height="16" fill="white"/>
</clipPath>
</defs>
</svg>
