<svg width="16" height="16" viewBox="0 0 16 16" fill="none" xmlns="http://www.w3.org/2000/svg">
<g clip-path="url(#clip0_402_6034)">
<path d="M13.601 2.32599C12.8675 1.58566 11.9939 0.998732 11.0313 0.599393C10.0687 0.200054 9.03617 -0.00370531 7.994 -1.17046e-05C3.627 -1.17046e-05 0.068 3.55799 0.064 7.92599C0.064 9.32499 0.43 10.686 1.121 11.891L0 16L4.204 14.898C5.367 15.5309 6.66993 15.8627 7.994 15.863H7.998C12.366 15.863 15.924 12.305 15.928 7.93299C15.929 6.89103 15.7238 5.85918 15.3243 4.89687C14.9247 3.93456 14.3387 3.06082 13.6 2.32599H13.601ZM7.994 14.521C6.813 14.5214 5.6537 14.2036 4.638 13.601L4.398 13.457L1.904 14.111L2.57 11.678L2.414 11.427C1.75381 10.3773 1.40465 9.16201 1.407 7.92199C1.407 4.29599 4.364 1.33799 7.998 1.33799C8.86374 1.33644 9.72123 1.50626 10.521 1.83768C11.3208 2.1691 12.0471 2.65555 12.658 3.26899C13.271 3.88004 13.757 4.60641 14.0879 5.40622C14.4188 6.20603 14.5881 7.06343 14.586 7.92899C14.582 11.568 11.625 14.521 7.994 14.521V14.521ZM11.609 9.58699C11.412 9.48799 10.439 9.00899 10.256 8.94099C10.074 8.87599 9.941 8.84199 9.811 9.03999C9.678 9.23699 9.298 9.68599 9.184 9.81499C9.07 9.94799 8.952 9.96299 8.754 9.86499C8.557 9.76499 7.918 9.55699 7.162 8.87999C6.572 8.35499 6.177 7.70499 6.059 7.50799C5.945 7.30999 6.048 7.20399 6.147 7.10499C6.234 7.01699 6.344 6.87299 6.443 6.75899C6.543 6.64499 6.576 6.56099 6.641 6.42899C6.706 6.29499 6.675 6.18099 6.626 6.08199C6.576 5.98299 6.181 5.00599 6.014 4.61199C5.854 4.22299 5.691 4.27699 5.569 4.27199C5.455 4.26499 5.322 4.26499 5.189 4.26499C5.08856 4.26748 4.98973 4.29071 4.89869 4.33322C4.80766 4.37572 4.7264 4.43659 4.66 4.51199C4.478 4.70999 3.969 5.18899 3.969 6.16599C3.969 7.14299 4.679 8.08199 4.779 8.21499C4.877 8.34799 6.173 10.347 8.162 11.207C8.632 11.412 9.002 11.533 9.291 11.625C9.766 11.777 10.195 11.754 10.537 11.705C10.917 11.647 11.708 11.225 11.875 10.762C12.039 10.298 12.039 9.90199 11.989 9.81899C11.94 9.73499 11.807 9.68599 11.609 9.58699V9.58699Z" fill="black"/>
</g>
<defs>
<clipPath id="clip0_402_6034">
<rect width="16" height="16" fill="white"/>
</clipPath>
</defs>
</svg>
