<svg width="16" height="16" viewBox="0 0 16 16" fill="none" xmlns="http://www.w3.org/2000/svg">
<g clip-path="url(#clip0_402_7678)">
<path d="M13.3334 2H2.66675C1.56218 2 0.666748 2.89543 0.666748 4V13.3333C0.666748 14.4379 1.56218 15.3333 2.66675 15.3333H13.3334C14.438 15.3333 15.3334 14.4379 15.3334 13.3333V4C15.3334 2.89543 14.438 2 13.3334 2Z" stroke="black" stroke-linecap="round" stroke-linejoin="round"/>
<path d="M0.666748 6H15.3334" stroke="black" stroke-linecap="round" stroke-linejoin="round"/>
<path d="M8 3.33332V0.666656" stroke="black" stroke-linecap="round" stroke-linejoin="round"/>
<path d="M4 3.33332V0.666656" stroke="black" stroke-linecap="round" stroke-linejoin="round"/>
<path d="M12 3.33332V0.666656" stroke="black" stroke-linecap="round" stroke-linejoin="round"/>
<path d="M3.3335 9.33331H4.66683" stroke="black" stroke-linecap="round" stroke-linejoin="round"/>
<path d="M7.3335 9.33331H8.66683" stroke="black" stroke-linecap="round" stroke-linejoin="round"/>
<path d="M11.3335 9.33331H12.6668" stroke="black" stroke-linecap="round" stroke-linejoin="round"/>
<path d="M3.3335 12H4.66683" stroke="black" stroke-linecap="round" stroke-linejoin="round"/>
<path d="M7.3335 12H8.66683" stroke="black" stroke-linecap="round" stroke-linejoin="round"/>
<path d="M11.3335 12H12.6668" stroke="black" stroke-linecap="round" stroke-linejoin="round"/>
</g>
<defs>
<clipPath id="clip0_402_7678">
<rect width="16" height="16" fill="white"/>
</clipPath>
</defs>
</svg>
