<svg width="10" height="12" viewBox="0 0 10 12" fill="none" xmlns="http://www.w3.org/2000/svg">
<g clip-path="url(#clip0_609_3782)">
<path d="M4.50501 9.42173H3.22026V0.214193C3.22026 0.151779 3.20022 0.100381 3.16002 0.0602791C3.11987 0.0202244 3.06864 9.15527e-05 3.00611 9.15527e-05H1.72136C1.65892 9.15527e-05 1.6075 0.0201541 1.56744 0.0602791C1.52734 0.100451 1.50721 0.151802 1.50721 0.214193V9.42173H0.222436C0.124327 9.42173 0.0573896 9.46633 0.0216708 9.55554C-0.0140479 9.64038 0.00165522 9.71843 0.0685224 9.78989L2.20977 11.9313C2.2589 11.9712 2.31016 11.9913 2.36369 11.9913C2.42169 11.9913 2.47302 11.9712 2.5176 11.9313L4.65219 9.79662C4.69691 9.74313 4.71916 9.68948 4.71916 9.63611C4.71916 9.57347 4.69912 9.52233 4.65892 9.48187C4.61877 9.44179 4.56751 9.42173 4.50501 9.42173Z" fill="black"/>
<path d="M8.43291 6.85239H7.60993L6.32501 8.09022L6.87394 8.66561L7.28879 8.27757C7.36906 8.19711 7.42704 8.12807 7.46267 8.07006L7.50943 7.98969H7.52281V8.09675C7.52281 8.11914 7.52152 8.15699 7.51943 8.21057C7.51735 8.26412 7.51606 8.3065 7.51606 8.33776V11.2285H6.39877V11.9913H9.5371V11.2285H8.43298V6.85239H8.43291Z" fill="black"/>
<path d="M9.18893 0.632344C8.82307 0.21075 8.3659 0 7.81713 0C7.33083 0 6.92714 0.162867 6.60591 0.488555C6.28486 0.814195 6.12427 1.2112 6.12427 1.67963C6.12427 2.13019 6.27354 2.51498 6.57263 2.8339C6.87164 3.15291 7.25728 3.31242 7.73018 3.31242C7.9267 3.31242 8.11519 3.28116 8.2958 3.2187C8.47627 3.15619 8.61366 3.07364 8.70736 2.97105H8.72074C8.64935 3.35913 8.50097 3.68365 8.27576 3.94465C8.05055 4.2056 7.75041 4.3361 7.37569 4.3361C7.20628 4.3361 7.03899 4.30711 6.87408 4.24913C6.80269 4.23134 6.73357 4.20673 6.66666 4.17553L6.40566 4.93172C6.48595 4.96294 6.57954 4.99636 6.68679 5.0321C6.89187 5.10345 7.1329 5.13919 7.40944 5.13919C7.71729 5.13919 8.00163 5.0846 8.26259 4.97529C8.52361 4.86595 8.74336 4.71982 8.92165 4.53696C9.1002 4.35401 9.25186 4.14106 9.37676 3.89796C9.50163 3.65484 9.59306 3.40055 9.65105 3.13512C9.70913 2.86966 9.73824 2.59873 9.73824 2.32209C9.73791 1.61719 9.55481 1.05401 9.18893 0.632344ZM8.56676 2.38896C8.41069 2.50943 8.22099 2.56966 7.998 2.56966C7.69474 2.56966 7.46149 2.48489 7.29851 2.31537C7.13578 2.14587 7.0542 1.93395 7.0542 1.6797C7.0542 1.4254 7.12334 1.21577 7.26162 1.05073C7.39981 0.885656 7.58501 0.803086 7.81704 0.803086C8.08022 0.803086 8.31 0.921258 8.50643 1.15772C8.70277 1.3942 8.80078 1.65291 8.80078 1.93397C8.80078 2.11685 8.72283 2.26856 8.56676 2.38896Z" fill="black"/>
</g>
<defs>
<clipPath id="clip0_609_3782">
<rect width="9.75" height="12" fill="white"/>
</clipPath>
</defs>
</svg>
