<svg width="18" height="16" viewBox="0 0 18 16" fill="none" xmlns="http://www.w3.org/2000/svg">
<path d="M4.577 9.92723L3.37442 14.9631C3.32591 15.1649 3.40384 15.376 3.57055 15.4988C3.73778 15.6212 3.96126 15.633 4.14036 15.5267L8.66268 12.8413L13.1829 15.5267C13.2645 15.5752 13.3558 15.5995 13.4467 15.5995C13.5546 15.5995 13.6619 15.5659 13.7527 15.4994C13.9195 15.3765 13.9974 15.1654 13.9489 14.9636L12.7463 9.92775L16.738 6.54503C16.8975 6.41033 16.96 6.19252 16.896 5.99381C16.8325 5.7951 16.6549 5.6542 16.4469 5.63716L11.1819 5.20258L9.13649 0.42839C9.05545 0.238455 8.86862 0.115616 8.66216 0.115616C8.45571 0.115616 8.26887 0.238455 8.18784 0.42839L6.14087 5.20258L0.87739 5.63665C0.66939 5.65368 0.491841 5.79458 0.428358 5.99329C0.364358 6.192 0.426809 6.40981 0.586293 6.54452L4.577 9.92723ZM6.5352 6.20542C6.72565 6.18994 6.89184 6.0702 6.9672 5.8942L8.66216 1.94116L10.3551 5.89368C10.4304 6.06968 10.5966 6.18942 10.7871 6.20491L15.1195 6.56207L11.8364 9.34452C11.6877 9.46994 11.6227 9.66865 11.6681 9.85807L12.6611 14.0155L8.92642 11.7966C8.76436 11.6996 8.56152 11.6996 8.39945 11.7966L4.66268 14.016L5.65571 9.85807C5.70113 9.66865 5.6361 9.46994 5.48745 9.34452L2.20539 6.56207L6.5352 6.20542Z" fill="black"/>
</svg>
